<svg width="130" height="45" viewBox="0 0 130 45" fill="none" xmlns="http://www.w3.org/2000/svg">
<path d="M118.884 0H10.2579C9.934 0 9.50209 0 9.07017 0C8.74624 0 8.4223 0 8.09837 0C7.34252 0 6.69465 0.1125 5.9388 0.225C5.29093 0.3375 4.53509 0.5625 3.88722 0.9C3.23935 1.2375 2.69946 1.6875 2.15957 2.25C1.61967 2.8125 1.18776 3.375 0.863826 4.05C0.539891 4.725 0.323935 5.5125 0.215957 6.1875C0.107978 6.975 0 7.65 0 8.4375C0 8.775 0 9.1125 0 9.45V35.4375C0 35.775 0 36.1125 0 36.45C0 37.2375 0.107978 37.9125 0.215957 38.7C0.323935 39.4875 0.539891 40.1625 0.863826 40.8375C1.18776 41.625 1.61967 42.1875 2.15957 42.75C2.69946 43.3125 3.23935 43.7625 3.88722 44.1C4.53509 44.4375 5.18296 44.6625 5.9388 44.775C6.69465 44.8875 7.34252 45 8.09837 45C8.4223 45 8.74624 45 9.07017 45C9.50209 45 9.82602 45 10.2579 45H118.884C119.316 45 119.64 45 120.072 45C120.396 45 120.72 45 121.044 45C121.799 45 122.447 44.8875 123.203 44.775C123.959 44.6625 124.607 44.4375 125.255 44.1C125.903 43.7625 126.443 43.3125 126.982 42.75C127.522 42.1875 127.954 41.625 128.278 40.95C128.602 40.275 128.818 39.6 128.926 38.8125C129.034 38.025 129.142 37.35 129.142 36.5625C129.142 36.225 129.142 35.8875 129.142 35.55C129.142 35.1 129.142 34.7625 129.142 34.3125V10.6875C129.142 10.2375 129.142 9.9 129.142 9.45C129.142 9.1125 129.142 8.775 129.142 8.4375C129.142 7.65 129.034 6.975 128.926 6.1875C128.818 5.4 128.602 4.725 128.278 4.05C127.63 2.7 126.551 1.575 125.255 0.9C124.607 0.5625 123.959 0.3375 123.203 0.225C122.447 0.1125 121.799 0 121.044 0C120.72 0 120.396 0 120.072 0C119.748 0 119.316 0 118.884 0Z" fill="#A6A6A6"/>
<path d="M9.0711 43.9875C8.74716 43.9875 8.42323 43.9875 8.09929 43.9875C7.45142 43.9875 6.69557 43.875 6.0477 43.7625C5.39983 43.65 4.85994 43.425 4.21207 43.0875C3.67218 42.75 3.13229 42.4125 2.70038 41.9625C2.26846 41.5125 1.83655 40.95 1.62059 40.3875C1.29666 39.825 1.18868 39.15 1.0807 38.4749C0.972724 37.7999 0.864746 37.1249 0.864746 36.3374C0.864746 36.1124 0.864746 35.3249 0.864746 35.3249V9.44967C0.864746 9.44967 0.864746 8.66216 0.864746 8.43716C0.864746 7.76215 0.972724 6.97464 1.0807 6.29964C1.29666 5.73713 1.40464 5.06212 1.72857 4.49962C2.05251 3.93711 2.37644 3.37461 2.80836 2.9246C3.24027 2.4746 3.78016 2.1371 4.32005 1.79959C4.85994 1.46209 5.50781 1.34959 6.15568 1.23709C6.80355 1.12459 7.45142 1.01208 8.09929 1.01208H9.0711H120.073H121.045C121.692 1.01208 122.34 1.12459 123.096 1.23709C123.744 1.34959 124.284 1.57459 124.932 1.79959C126.012 2.3621 126.983 3.37461 127.523 4.49962C127.847 5.06212 127.955 5.73713 128.063 6.29964C128.171 6.97464 128.279 7.76215 128.279 8.43716C128.279 8.77466 128.279 9.11216 128.279 9.44967C128.279 9.89967 128.279 10.2372 128.279 10.6872V34.1999C128.279 34.6499 128.279 34.9874 128.279 35.4374C128.279 35.7749 128.279 36.1124 128.279 36.4499C128.279 37.1249 128.171 37.7999 128.063 38.5874C127.955 39.2625 127.739 39.825 127.523 40.5C127.199 41.0625 126.875 41.625 126.443 42.075C126.012 42.525 125.472 42.975 124.932 43.2C124.392 43.5375 123.744 43.7625 123.096 43.7625C122.448 43.875 121.8 43.9875 121.045 43.9875C120.721 43.9875 120.397 43.9875 120.073 43.9875H118.885H9.0711Z" fill="black"/>
<path d="M26.7783 22.8369C26.7783 20.9244 27.7501 19.1244 29.3698 18.1119C28.398 16.6494 26.7783 15.7494 25.0506 15.6369C23.215 15.4119 21.4873 16.7619 20.5155 16.7619C19.5437 16.7619 18.14 15.6369 16.6283 15.6369C14.5767 15.7494 12.7411 16.8744 11.7693 18.6744C9.71772 22.3869 11.2294 28.0119 13.281 31.0494C14.2528 32.5119 15.4406 34.1994 16.9523 34.1994C18.464 34.0869 19.0038 33.1869 20.8395 33.1869C22.6751 33.1869 23.107 34.1994 24.7267 34.1994C26.3464 34.1994 27.3182 32.7369 28.29 31.1619C29.0458 30.1494 29.5857 28.9119 29.9096 27.6744C27.966 26.9994 26.7783 24.9744 26.7783 22.8369Z" fill="white"/>
<path d="M23.7553 13.7247C24.6191 12.5996 25.051 11.2496 24.9431 9.78705C23.6473 9.89955 22.3516 10.5746 21.4878 11.6996C20.6239 12.7121 20.192 14.0622 20.3 15.5247C21.7037 15.5247 22.8915 14.8497 23.7553 13.7247Z" fill="white"/>
<path d="M45.6743 30.4869H40.5993L39.4115 34.312H37.252L42.111 20.3618H44.2705L49.1296 34.312H46.97L45.6743 30.4869ZM41.1392 28.7994H45.2423L43.1908 22.6118L41.1392 28.7994Z" fill="white"/>
<path d="M59.6044 29.2493C59.6044 32.3993 57.9848 34.4243 55.5013 34.4243C54.2055 34.5368 53.0177 33.7493 52.4779 32.6243V37.6868H50.4263V24.1868H52.3699V25.8743C53.0177 24.7493 54.2055 24.0743 55.5013 24.0743C57.8768 23.9618 59.6044 26.0993 59.6044 29.2493ZM57.4449 29.2493C57.4449 27.2243 56.4731 25.8743 54.8534 25.8743C53.3417 25.8743 52.2619 27.2243 52.2619 29.2493C52.2619 31.2743 53.3417 32.6243 54.8534 32.6243C56.4731 32.6243 57.4449 31.2743 57.4449 29.2493Z" fill="white"/>
<path d="M70.2944 29.249C70.2944 32.399 68.6747 34.424 66.1912 34.424C64.8955 34.5365 63.7077 33.749 63.1678 32.624V37.6865H61.1162V24.1865H63.0598V25.874C63.7077 24.749 64.8955 24.074 66.1912 24.074C68.6747 23.9615 70.2944 26.099 70.2944 29.249ZM68.2428 29.249C68.2428 27.224 67.271 25.874 65.6513 25.874C64.1396 25.874 63.0598 27.224 63.0598 29.249C63.0598 31.274 64.1396 32.624 65.6513 32.624C67.271 32.624 68.2428 31.274 68.2428 29.249Z" fill="white"/>
<path d="M77.4201 30.3746C77.5281 31.7246 78.8238 32.6246 80.6594 32.6246C82.3871 32.6246 83.5749 31.7246 83.5749 30.4871C83.5749 29.3621 82.819 28.7996 81.0914 28.3496L79.3637 27.8996C76.8802 27.2246 75.8004 26.0995 75.8004 24.187C75.8004 21.8245 77.852 20.137 80.6594 20.137C83.4669 20.137 85.4105 21.8245 85.5185 24.187H83.4669C83.3589 22.837 82.2791 21.937 80.6594 21.937C79.0398 21.937 77.96 22.837 77.96 24.0745C77.96 25.087 78.7158 25.6495 80.4435 26.0995L81.9552 26.437C84.6546 27.1121 85.8424 28.2371 85.8424 30.2621C85.8424 32.8496 83.7908 34.5371 80.6594 34.5371C77.6361 34.5371 75.6925 32.9621 75.5845 30.3746H77.4201Z" fill="white"/>
<path d="M89.946 21.7119V24.0744H91.7816V25.7619H89.946V31.3868C89.946 32.2868 90.2699 32.6243 91.1338 32.6243C91.3497 32.6243 91.5657 32.6243 91.7816 32.6243V34.3118C91.4577 34.4243 91.0258 34.4243 90.7019 34.4243C88.7582 34.4243 88.0024 33.6368 88.0024 31.7243V25.8744H86.5986V24.1869H88.0024V21.8244H89.946V21.7119Z" fill="white"/>
<path d="M92.9707 29.2493C92.9707 26.0992 94.8063 24.0741 97.6138 24.0741C100.421 24.0741 102.257 26.0992 102.257 29.2493C102.257 32.3995 100.421 34.4246 97.6138 34.4246C94.8063 34.4246 92.9707 32.3995 92.9707 29.2493ZM100.205 29.2493C100.205 26.9992 99.2334 25.7617 97.6138 25.7617C95.9941 25.7617 95.0223 26.9992 95.0223 29.2493C95.0223 31.4994 95.9941 32.737 97.6138 32.737C99.2334 32.737 100.205 31.3869 100.205 29.2493Z" fill="white"/>
<path d="M103.874 24.0747H105.818V25.8747C106.034 24.7497 107.113 23.9622 108.193 24.0747C108.409 24.0747 108.625 24.0747 108.841 24.1872V26.0997C108.517 25.9872 108.193 25.9872 107.977 25.9872C106.897 25.9872 105.926 26.8872 105.926 28.0122C105.926 28.1247 105.926 28.2372 105.926 28.3497V34.4248H103.874V24.0747Z" fill="white"/>
<path d="M118.127 31.2745C117.911 33.0745 116.076 34.4245 113.916 34.4245C111.109 34.4245 109.273 32.3995 109.273 29.2495C109.273 26.0995 111.001 23.962 113.808 23.962C116.508 23.962 118.235 25.8745 118.235 29.0245V29.6995H111.325V29.812C111.217 31.2745 112.188 32.512 113.592 32.737C113.7 32.737 113.808 32.737 113.916 32.737C114.888 32.8495 115.86 32.287 116.184 31.2745H118.127ZM111.325 28.237H116.184C116.292 26.887 115.32 25.762 114.024 25.6495C113.916 25.6495 113.916 25.6495 113.808 25.6495C112.404 25.6495 111.325 26.7745 111.325 28.237Z" fill="white"/>
<path d="M40.816 9.78767C42.4356 9.67517 43.7314 10.9127 43.8393 12.4877C43.8393 12.7127 43.8393 12.9377 43.8393 13.0502C43.8393 15.1876 42.7596 16.4251 40.816 16.4251H38.4404V9.67517H40.816V9.78767ZM39.5202 15.6376H40.708C41.7878 15.7501 42.7596 14.8501 42.8675 13.6126C42.8675 13.5001 42.8675 13.2751 42.8675 13.1626C42.9755 12.0377 42.2197 10.9127 41.1399 10.8002C41.0319 10.8002 40.9239 10.8002 40.708 10.8002H39.5202V15.6376Z" fill="white"/>
<path d="M45.0291 13.9505C44.9211 12.6006 45.7849 11.4757 47.0807 11.3632C48.3764 11.2507 49.4562 12.1506 49.5642 13.5005C49.5642 13.613 49.5642 13.838 49.5642 13.9505C49.6721 15.3004 48.8083 16.4253 47.5126 16.5378C46.2169 16.6503 45.1371 15.7503 45.0291 14.4004C45.0291 14.288 45.0291 14.1755 45.0291 13.9505ZM48.5924 13.9505C48.5924 12.8256 48.1604 12.2631 47.2966 12.2631C46.4328 12.2631 46.0009 12.9381 46.0009 13.9505C46.0009 14.9629 46.4328 15.7503 47.2966 15.7503C48.1604 15.7503 48.5924 15.0754 48.5924 13.9505Z" fill="white"/>
<path d="M55.7192 16.5371H54.7474L53.7756 12.8246H53.6676L52.6958 16.5371H51.724L50.4282 11.4746H51.4L52.2639 15.2996H52.3718L53.3437 11.4746H54.3155L55.2873 15.2996H55.3953L56.2591 11.4746H57.2309L55.7192 16.5371Z" fill="white"/>
<path d="M58.2007 11.4751H59.1725V12.2626H59.2805C59.4964 11.7001 60.1443 11.3626 60.6842 11.3626C61.548 11.2501 62.3039 11.9251 62.4119 12.9376C62.4119 13.0501 62.4119 13.1626 62.4119 13.2751V16.5376H61.4401V13.5001C61.4401 12.7126 61.1161 12.2626 60.3603 12.2626C59.7124 12.2626 59.1725 12.7126 59.1725 13.3876C59.1725 13.5001 59.1725 13.5001 59.1725 13.6126V16.5376H58.2007V11.4751Z" fill="white"/>
<path d="M63.8164 9.45007H64.7882V16.5375H63.8164V9.45007Z" fill="white"/>
<path d="M66.0829 13.95C65.9749 12.6 66.9467 11.475 68.1345 11.3625C69.4303 11.25 70.5101 12.2625 70.618 13.5C70.618 13.6125 70.618 13.8375 70.618 13.95C70.726 15.3 69.8622 16.425 68.5664 16.5375C67.2707 16.65 66.1909 15.75 66.0829 14.4C66.0829 14.2875 66.0829 14.175 66.0829 13.95ZM69.7542 13.95C69.7542 12.825 69.3223 12.2625 68.4585 12.2625C67.5946 12.2625 67.1627 12.9375 67.1627 13.95C67.1627 14.9625 67.5946 15.75 68.4585 15.75C69.2143 15.75 69.7542 15.075 69.7542 13.95Z" fill="white"/>
<path d="M71.6973 15.075C71.6973 14.175 72.3452 13.6125 73.533 13.6125L74.8287 13.5V13.05C74.8287 12.4875 74.5048 12.2625 73.8569 12.2625C73.317 12.2625 72.9931 12.4875 72.8851 12.825H71.9133C72.0213 11.925 72.7771 11.3625 73.8569 11.3625C75.0447 11.3625 75.8005 12.0375 75.8005 13.05V16.5375H74.8287V15.8625H74.7207C74.3968 16.425 73.8569 16.65 73.209 16.65C72.4532 16.7625 71.6973 16.0875 71.5894 15.3C71.6973 15.1875 71.6973 15.1875 71.6973 15.075ZM74.8287 14.625V14.175L73.641 14.2875C72.9931 14.2875 72.6691 14.625 72.6691 14.9625C72.6691 15.3 73.1011 15.6375 73.533 15.6375C74.1808 15.8625 74.7208 15.4125 74.8287 14.625C74.8287 14.7375 74.8287 14.7375 74.8287 14.625Z" fill="white"/>
<path d="M76.9888 13.95C76.9888 12.3751 77.7446 11.3626 79.0404 11.3626C79.6883 11.3626 80.2282 11.7001 80.5521 12.2626H80.6601V9.45007H81.6319V16.5375H80.6601V15.75H80.5521C80.2282 16.3125 79.6883 16.65 79.0404 16.65C77.8526 16.65 76.9888 15.6375 76.9888 13.95ZM78.0686 13.95C78.0686 15.075 78.5005 15.6375 79.3643 15.6375C80.2282 15.6375 80.6601 14.9625 80.6601 13.95C80.6601 12.9376 80.1202 12.2626 79.3643 12.2626C78.6085 12.2626 78.0686 12.9376 78.0686 13.95Z" fill="white"/>
<path d="M85.5223 13.9505C85.4143 12.6006 86.2781 11.4757 87.5738 11.3632C88.8696 11.2507 89.9493 12.1506 90.0573 13.5005C90.0573 13.613 90.0573 13.838 90.0573 13.9505C90.1653 15.3004 89.3015 16.4253 88.0058 16.5378C86.71 16.6503 85.6303 15.7503 85.5223 14.4004C85.5223 14.288 85.5223 14.1755 85.5223 13.9505ZM89.1935 13.9505C89.1935 12.8256 88.7616 12.2631 87.8978 12.2631C87.034 12.2631 86.602 12.9381 86.602 13.9505C86.602 14.9629 87.034 15.7503 87.8978 15.7503C88.7616 15.7503 89.1935 15.0754 89.1935 13.9505Z" fill="white"/>
<path d="M91.46 11.4751H92.4318V12.2626H92.5398C92.7557 11.7001 93.4036 11.3626 93.9435 11.3626C94.8073 11.2501 95.5632 11.9251 95.6711 12.9376C95.6711 13.0501 95.6711 13.1626 95.6711 13.2751V16.5376H94.6993V13.5001C94.6993 12.7126 94.3754 12.2626 93.6195 12.2626C92.9717 12.2626 92.4318 12.7126 92.4318 13.3876C92.4318 13.5001 92.4318 13.5001 92.4318 13.6126V16.5376H91.46V11.4751Z" fill="white"/>
<path d="M100.961 10.2373V11.4748H102.04V12.3749H100.961V14.9625C100.961 15.525 101.177 15.75 101.608 15.75C101.716 15.75 101.824 15.75 101.932 15.75V16.5375C101.716 16.5375 101.608 16.5375 101.393 16.5375C100.313 16.5375 99.8808 16.2 99.8808 15.1875V12.3749H99.125V11.5874H99.8808V10.2373H100.961Z" fill="white"/>
<path d="M103.337 9.45007H104.309V12.2625H104.417C104.633 11.7 105.281 11.25 105.929 11.3625C106.793 11.3625 107.549 12.0375 107.657 12.9375C107.657 13.05 107.657 13.1625 107.657 13.275V16.5375H106.685V13.5C106.685 12.7125 106.361 12.2625 105.605 12.2625C104.957 12.2625 104.417 12.7125 104.417 13.3875C104.417 13.5 104.417 13.5 104.417 13.6125V16.5375H103.445V9.45007H103.337Z" fill="white"/>
<path d="M113.161 15.1875C112.837 16.0876 111.973 16.7626 111.001 16.6501C109.814 16.6501 108.734 15.6375 108.734 14.4C108.734 14.2875 108.734 14.175 108.734 14.0625C108.518 12.8249 109.382 11.5874 110.677 11.4749C110.785 11.4749 110.893 11.4749 111.001 11.4749C112.405 11.4749 113.161 12.4874 113.161 14.0625V14.4H109.706V14.5125C109.598 15.3 110.137 15.8625 110.893 15.975H111.001C111.433 16.0876 111.973 15.75 112.189 15.4125L113.161 15.1875ZM109.706 13.4999H112.189C112.189 12.8249 111.757 12.2624 111.109 12.1499H111.001C110.353 12.2624 109.706 12.8249 109.706 13.4999Z" fill="white"/>
</svg>
